<?xml version="1.0" standalone="no"?>
<!DOCTYPE svg PUBLIC "-//W3C//DTD SVG 20010904//EN"
 "http://www.w3.org/TR/2001/REC-SVG-20010904/DTD/svg10.dtd">
<svg version="1.0" xmlns="http://www.w3.org/2000/svg"
 width="1280.000000pt" height="1280.000000pt" viewBox="0 0 1280.000000 1280.000000"
 preserveAspectRatio="xMidYMid meet">

<g transform="translate(0.000000,1280.000000) scale(0.100000,-0.100000)"
fill="#000000" stroke="none">
<path d="M4755 12430 c-22 -5 -69 -9 -105 -9 -36 -1 -103 -7 -150 -15 -47 -8
-125 -19 -175 -26 -330 -43 -861 -196 -1155 -333 -95 -44 -178 -82 -260 -119
-75 -35 -444 -255 -560 -336 -366 -253 -757 -625 -1031 -982 -88 -114 -220
-304 -252 -363 -15 -26 -63 -108 -107 -182 -74 -123 -101 -176 -200 -390 -18
-38 -44 -95 -58 -125 -88 -191 -266 -801 -292 -1000 -5 -41 -18 -134 -29 -206
-11 -73 -23 -186 -27 -253 -4 -67 -11 -121 -16 -121 -4 0 -8 -110 -8 -245 0
-135 4 -245 8 -245 5 0 12 -54 16 -121 4 -67 16 -180 27 -253 11 -72 24 -165
29 -206 27 -208 206 -814 299 -1015 18 -38 44 -95 58 -125 86 -188 124 -259
229 -437 131 -221 186 -303 319 -478 485 -634 1196 -1176 1940 -1478 199 -80
220 -87 580 -198 76 -23 421 -91 529 -104 67 -9 155 -20 196 -25 253 -34 758
-29 1055 10 83 11 170 23 195 26 52 7 401 80 445 93 360 110 381 118 580 198
256 104 479 219 726 375 86 54 162 98 170 98 9 0 20 -18 27 -47 21 -78 63
-173 120 -268 51 -84 139 -174 1416 -1453 749 -750 1401 -1398 1450 -1440 49
-41 129 -97 180 -124 88 -47 264 -108 312 -108 13 0 24 -4 24 -10 0 -6 52 -10
135 -10 83 0 135 4 135 10 0 6 11 10 24 10 13 0 68 13 122 29 348 104 617 400
696 766 17 79 21 273 7 335 -46 212 -113 352 -235 498 -45 53 -693 707 -1440
1453 -1052 1050 -1375 1366 -1430 1401 -82 53 -205 110 -286 133 -32 9 -58 20
-58 25 0 5 48 85 106 177 114 181 284 500 334 628 17 44 35 89 40 100 43 92
108 280 181 525 41 140 102 445 129 655 63 479 42 1113 -49 1520 -11 50 -27
126 -36 170 -33 164 -121 438 -218 680 -141 355 -352 732 -576 1030 -173 231
-191 252 -446 524 -136 145 -435 397 -645 543 -111 77 -483 301 -544 328 -22
10 -81 37 -131 60 -237 111 -266 123 -438 181 -51 18 -121 42 -156 55 -67 26
-465 126 -566 143 -33 5 -96 15 -140 21 -44 6 -109 16 -145 22 -36 6 -114 15
-175 20 -148 13 -650 19 -700 8z m595 -1200 c418 -38 838 -151 1204 -325 529
-252 992 -634 1335 -1104 104 -141 270 -412 310 -502 10 -24 40 -89 66 -144
25 -55 62 -143 80 -195 18 -52 42 -122 54 -155 24 -66 93 -345 110 -440 77
-441 77 -839 0 -1280 -14 -80 -85 -374 -100 -411 -6 -16 -30 -85 -54 -154 -24
-69 -64 -170 -90 -225 -26 -55 -56 -120 -67 -145 -40 -93 -207 -361 -320 -515
-275 -374 -627 -693 -1036 -937 -90 -54 -165 -98 -167 -98 -2 0 -56 -25 -121
-56 -142 -67 -177 -81 -358 -145 -150 -53 -413 -120 -541 -139 -44 -6 -107
-16 -140 -22 -33 -6 -151 -16 -262 -23 -210 -12 -528 -1 -668 23 -33 6 -96 16
-140 23 -129 18 -394 86 -543 138 -175 62 -211 77 -356 145 -65 31 -120 56
-121 56 -2 0 -72 41 -156 90 -322 191 -594 414 -836 684 -139 156 -298 370
-387 521 -104 176 -112 189 -128 225 -9 19 -40 85 -68 145 -58 123 -62 133
-130 331 -54 156 -124 430 -139 550 -6 44 -18 131 -27 194 -12 83 -16 189 -16
385 0 196 4 302 16 385 9 63 21 150 27 194 22 167 109 481 202 731 16 42 113
252 148 319 61 118 186 318 278 445 376 516 875 910 1486 1174 283 122 713
228 1049 257 122 11 487 11 606 0z"/>
<path d="M3079 10140 l-24 -20 35 12 c44 14 61 28 33 28 -11 0 -31 -9 -44 -20z"/>
<path d="M3000 10100 c-18 -12 -2 -12 25 0 13 6 15 9 5 9 -8 0 -22 -4 -30 -9z"/>
</g>
</svg>
