<?xml version="1.0" standalone="no"?>
<!DOCTYPE svg PUBLIC "-//W3C//DTD SVG 20010904//EN"
 "http://www.w3.org/TR/2001/REC-SVG-20010904/DTD/svg10.dtd">
<svg version="1.0" xmlns="http://www.w3.org/2000/svg"
 width="512.000000pt" height="512.000000pt" viewBox="0 0 512.000000 512.000000"
 preserveAspectRatio="xMidYMid meet">

<g transform="translate(0.000000,512.000000) scale(0.100000,-0.100000)"
fill="#000000" stroke="none">
<path d="M2421 4624 c-142 -30 -295 -127 -377 -238 -78 -106 -1703 -2922
-1737 -3011 -30 -76 -31 -87 -31 -225 0 -138 1 -149 31 -226 77 -203 217 -339
422 -412 l76 -27 1755 0 1755 0 80 28 c202 72 341 209 418 411 30 77 31 88 31
226 0 135 -2 150 -28 220 -25 66 -1579 2771 -1704 2965 -65 102 -150 178 -257
231 -143 71 -288 90 -434 58z m283 -338 c28 -14 70 -44 93 -68 59 -61 1706
-2908 1723 -2979 40 -165 -38 -333 -190 -407 l-55 -27 -1715 0 -1715 0 -55 27
c-152 74 -230 242 -190 407 15 65 1663 2917 1718 2974 77 79 156 110 266 102
46 -3 86 -12 120 -29z"/>
<path d="M2459 3477 c-104 -39 -162 -130 -161 -252 1 -71 97 -1253 107 -1312
12 -67 83 -123 155 -123 72 0 143 56 155 123 10 59 106 1241 107 1312 1 109
-48 196 -136 242 -42 22 -179 28 -227 10z"/>
<path d="M2480 1504 c-107 -46 -159 -174 -115 -282 64 -152 273 -172 369 -34
40 57 48 149 18 208 -54 104 -172 151 -272 108z"/>
</g>
</svg>
